<svg viewBox="0 0 64 64" fill="none" xmlns="http://www.w3.org/2000/svg">
  <rect width="64" height="64" rx="14" fill="white"/>
  <g transform="translate(6, 8) scale(0.37)">
    <path d="M33.1641 3.11555C39.4444 -0.123993 46.7175 -0.869005 53.5242 1.02996C60.331 2.92893 66.1679 7.33143 69.8642 13.3543C73.5605 19.3772 74.8428 26.575 73.4538 33.5038C72.0647 40.4326 68.1072 46.5799 62.3749 50.7126C56.6427 54.8454 49.5598 56.6578 42.5471 55.7863C35.5344 54.9149 29.1105 51.424 24.5641 46.014C20.0177 40.604 17.6851 33.675 18.0342 26.617C18.3832 19.559 21.3882 12.8939 26.4462 7.95892L46 28.0001L33.1641 3.11555Z" fill="#1a1a1a"/>
    <circle cx="16" cy="83.0001" r="16" fill="#1a1a1a"/>
    <circle cx="107.5" cy="82.5001" r="33.5" fill="#1a1a1a"/>
    <path d="M50.9106 34.1654C45.9404 31.4436 40.9702 28.7218 36 26.0001C35.6943 26.7426 35.3887 27.4851 35.083 28.2276C29.5809 41.5931 24.0787 54.9586 18.5766 68.3241C18.2709 69.0667 17.9652 69.8092 17.6596 70.5517C19.5234 71.5724 21.3872 72.5931 23.2511 73.6137C23.7121 72.9563 24.173 72.2988 24.634 71.6413C32.9319 59.8068 41.2298 47.9723 49.5277 36.1378C49.9887 35.4804 50.4496 34.8229 50.9106 34.1654Z" fill="#1a1a1a"/>
    <path d="M69.9693 33.7752C65.6462 38.8502 61.3231 43.9251 57 49.0001C57.5175 49.3041 58.0351 49.6081 58.5526 49.9122C67.8685 55.3848 77.1844 60.8575 86.5003 66.3302C87.0178 66.6342 87.5354 66.9383 88.0529 67.2423C89.6741 65.3392 91.2952 63.4361 92.9164 61.533C92.534 61.0703 92.1515 60.6077 91.7691 60.1451C84.8849 51.8177 78.0008 43.4904 71.1167 35.1631C70.7342 34.7005 70.3518 34.2378 69.9693 33.7752Z" fill="#1a1a1a"/>
  </g>
</svg>
