<svg viewBox="0 0 457 134" fill="none" xmlns="http://www.w3.org/2000/svg">
  <path
    d="M33.1641 3.11555C39.4444 -0.123993 46.7175 -0.869005 53.5242 1.02996C60.331 2.92893 66.1679 7.33143 69.8642 13.3543C73.5605 19.3772 74.8428 26.575 73.4538 33.5038C72.0647 40.4326 68.1072 46.5799 62.3749 50.7126C56.6427 54.8454 49.5598 56.6578 42.5471 55.7863C35.5344 54.9149 29.1105 51.424 24.5641 46.014C20.0177 40.604 17.6851 33.675 18.0342 26.617C18.3832 19.559 21.3882 12.8939 26.4462 7.95892L46 28.0001L33.1641 3.11555Z"
    fill="#171717"
  />
  <circle cx="16" cy="83.0001" r="16" fill="#171717" />
  <path
    d="M106.814 124.68C99.5338 124.68 93.1405 123.187 87.6338 120.2C82.1272 117.12 77.7872 112.873 74.6138 107.46C71.5338 101.953 69.9938 95.6534 69.9938 88.5601C69.9938 81.2801 71.5338 74.7934 74.6138 69.1001C77.6938 63.4067 81.9872 58.9267 87.4938 55.6601C93.0005 52.3934 99.3938 50.7601 106.674 50.7601C113.767 50.7601 119.974 52.3001 125.294 55.3801C130.614 58.4601 134.767 62.6601 137.754 67.9801C140.834 73.2067 142.374 79.2734 142.374 86.1801C142.374 87.1134 142.327 88.1867 142.234 89.4001C142.234 90.5201 142.141 91.6867 141.954 92.9001H84.9738V80.7201H120.954C120.767 76.8001 119.321 73.6734 116.614 71.3401C114.001 68.9134 110.734 67.7001 106.814 67.7001C103.827 67.7001 101.121 68.4001 98.6938 69.8001C96.2672 71.2001 94.3072 73.3001 92.8138 76.1001C91.4138 78.9001 90.7138 82.4467 90.7138 86.7401V90.9401C90.7138 94.2067 91.3205 97.1001 92.5338 99.6201C93.8405 102.14 95.6605 104.1 97.9938 105.5C100.421 106.9 103.267 107.6 106.534 107.6C109.614 107.6 112.134 106.993 114.094 105.78C116.147 104.473 117.734 102.84 118.854 100.88H140.274C138.967 105.36 136.727 109.42 133.554 113.06C130.381 116.607 126.507 119.453 121.934 121.6C117.361 123.653 112.321 124.68 106.814 124.68ZM155.436 123V52.4401H173.776L175.456 63.7801C177.603 59.8601 180.636 56.7334 184.556 54.4001C188.476 51.9734 193.236 50.7601 198.836 50.7601C204.716 50.7601 209.663 52.0201 213.676 54.5401C217.69 57.0601 220.723 60.7001 222.776 65.4601C224.923 70.1267 225.996 75.8667 225.996 82.6801V123H205.136V84.6401C205.136 79.5067 204.016 75.5401 201.776 72.7401C199.63 69.8467 196.176 68.4001 191.416 68.4001C188.616 68.4001 186.05 69.1001 183.716 70.5001C181.476 71.8067 179.703 73.7201 178.396 76.2401C177.09 78.7601 176.436 81.7934 176.436 85.3401V123H155.436ZM241.103 123V52.4401H259.443L261.263 61.5401C263.503 58.2734 266.443 55.6601 270.083 53.7001C273.817 51.7401 278.11 50.7601 282.963 50.7601C286.417 50.7601 289.543 51.2267 292.343 52.1601C295.143 53.0001 297.617 54.3067 299.763 56.0801C301.91 57.7601 303.683 59.9067 305.083 62.5201C307.79 58.8801 311.243 56.0334 315.443 53.9801C319.643 51.8334 324.217 50.7601 329.163 50.7601C335.51 50.7601 340.737 52.0201 344.843 54.5401C349.043 57.0601 352.17 60.7001 354.223 65.4601C356.277 70.2201 357.303 76.0067 357.303 82.8201V123H336.443V84.6401C336.443 79.5067 335.417 75.5401 333.363 72.7401C331.403 69.8467 328.23 68.4001 323.843 68.4001C321.043 68.4001 318.57 69.1001 316.423 70.5001C314.277 71.9001 312.597 73.8601 311.383 76.3801C310.263 78.9001 309.703 81.9334 309.703 85.4801V123H288.843V84.6401C288.843 79.5067 287.817 75.5401 285.763 72.7401C283.71 69.8467 280.397 68.4001 275.823 68.4001C273.21 68.4001 270.83 69.1001 268.683 70.5001C266.63 71.9001 264.997 73.8601 263.783 76.3801C262.663 78.9001 262.103 81.9334 262.103 85.4801V123H241.103ZM396.514 124.68C390.634 124.68 385.734 123.747 381.814 121.88C377.988 120.013 375.141 117.493 373.274 114.32C371.501 111.053 370.614 107.46 370.614 103.54C370.614 99.3401 371.641 95.6534 373.694 92.4801C375.841 89.2134 379.154 86.6467 383.634 84.7801C388.114 82.8201 393.761 81.8401 400.574 81.8401H417.654C417.654 78.6667 417.234 76.0534 416.394 74.0001C415.648 71.9467 414.388 70.4067 412.614 69.3801C410.841 68.3534 408.414 67.8401 405.334 67.8401C402.068 67.8401 399.314 68.4934 397.074 69.8001C394.834 71.1067 393.434 73.1601 392.874 75.9601H372.714C373.181 70.9201 374.814 66.5334 377.614 62.8001C380.508 59.0667 384.334 56.1267 389.094 53.9801C393.854 51.8334 399.314 50.7601 405.474 50.7601C412.194 50.7601 418.028 51.8801 422.974 54.1201C427.921 56.2667 431.748 59.4401 434.454 63.6401C437.254 67.8401 438.654 73.0667 438.654 79.3201V123H421.154L418.634 112.78C417.608 114.553 416.394 116.187 414.994 117.68C413.594 119.08 411.961 120.34 410.094 121.46C408.228 122.487 406.174 123.28 403.934 123.84C401.694 124.4 399.221 124.68 396.514 124.68ZM401.694 108.72C403.934 108.72 405.894 108.347 407.574 107.6C409.254 106.853 410.701 105.827 411.914 104.52C413.128 103.213 414.108 101.72 414.854 100.04C415.694 98.2667 416.301 96.3534 416.674 94.3001V94.1601H403.094C400.761 94.1601 398.801 94.4867 397.214 95.1401C395.721 95.7001 394.601 96.5401 393.854 97.6601C393.108 98.7801 392.734 100.087 392.734 101.58C392.734 103.167 393.108 104.52 393.854 105.64C394.694 106.667 395.768 107.46 397.074 108.02C398.474 108.487 400.014 108.72 401.694 108.72Z"
    fill="#171717"
  />
  <path
    d="M50.9106 34.1654C45.9404 31.4436 40.9702 28.7218 36 26.0001C35.6943 26.7426 35.3887 27.4851 35.083 28.2276C29.5809 41.5931 24.0787 54.9586 18.5766 68.3241C18.2709 69.0667 17.9652 69.8092 17.6596 70.5517C19.5234 71.5724 21.3872 72.5931 23.2511 73.6137C23.7121 72.9563 24.173 72.2988 24.634 71.6413C32.9319 59.8068 41.2298 47.9723 49.5277 36.1378C49.9887 35.4804 50.4496 34.8229 50.9106 34.1654Z"
    fill="#171717"
  />
  <path
    d="M69.9693 33.7752C65.6462 38.8502 61.3231 43.9251 57 49.0001C57.5175 49.3041 58.0351 49.6081 58.5526 49.9122C67.8685 55.3848 77.1844 60.8575 86.5003 66.3302C87.0178 66.6342 87.5354 66.9383 88.0529 67.2423C89.6741 65.3392 91.2952 63.4361 92.9164 61.533C92.534 61.0703 92.1515 60.6077 91.7691 60.1451C84.8849 51.8177 78.0008 43.4904 71.1167 35.1631C70.7342 34.7005 70.3518 34.2378 69.9693 33.7752Z"
    fill="#171717"
  />
</svg>
